<svg xmlns="http://www.w3.org/2000/svg" aria-hidden="true" style="position:absolute;width:0;height:0;overflow:hidden"><defs><symbol id="icon-icon-burger" viewBox="0 0 47 32"><path d="M.809.147C.589.262.403.41.25.587L.248.589l-.247.3v2.467l.332.332c.636.636-1.54.583 23.293.56l22.106-.019.407-.225.407-.227V.402L45.74.001 23.433.002C1.9.003 1.114.009.809.147zm.259 13.428c-.359.109-.742.384-.909.653-.141.23-.159.384-.159 1.412 0 1.004.02 1.187.151 1.401.217.355.735.628 1.364.72.742.108 43.081.108 43.821 0 .295-.042.679-.156.854-.252l.316-.175v-3.408l-.698-.39-22.263-.013c-12.246-.007-22.361.016-22.477.051zm.151 13.506a1.69 1.69 0 0 0-.972.571l-.002.003-.244.279v2.497l.332.332c.636.634-1.54.582 23.293.56 20.793-.019 22.122-.028 22.378-.154.573-.285.543-.17.543-2.022v-1.673l-.892-.438-22.071-.012c-12.748-.007-22.193.016-22.364.057z"/></symbol></defs></svg>